<?xml version="1.0" encoding="iso-8859-1"?>
<!-- Generator: Adobe Illustrator 19.0.0, SVG Export Plug-In . SVG Version: 6.00 Build 0)  -->
<svg version="1.1" id="Layer_1" xmlns="http://www.w3.org/2000/svg" xmlns:xlink="http://www.w3.org/1999/xlink" x="0px" y="0px"
	 viewBox="0 0 512.001 512.001" style="enable-background:new 0 0 512.001 512.001;" xml:space="preserve">
<polygon style="fill:#BF3034;" points="391.342,291.785 427.798,405.408 504.397,377.838 389.799,101.239 344.284,101.239 
	344.284,291.018 "/>
<path style="fill:#772E29;" d="M463.796,393.028L373.88,168.256c-1.559-3.899,0.337-8.323,4.237-9.884
	c3.896-1.557,8.323,0.337,9.884,4.237l89.916,224.772L463.796,393.028z"/>
<g style="opacity:0.5;">
	<path style="fill:#772E29;" d="M409.342,148.406L389.8,101.239h-45.517v189.779l47.059,0.767l25.298,78.848
		C412.932,304.333,408.487,209.549,409.342,148.406z"/>
</g>
<polygon style="fill:#BF3034;" points="119.808,294.437 84.202,405.408 7.604,377.838 123.303,102.679 161.56,102.679 
	161.56,294.442 "/>
<path style="fill:#772E29;" d="M34.086,387.381l95.646-239.099c1.559-3.9,5.983-5.796,9.884-4.237
	c3.899,1.56,5.795,5.985,4.236,9.884L48.204,393.028L34.086,387.381z"/>
<g style="opacity:0.5;">
	<path style="fill:#772E29;" d="M123.303,101.121l-19.913,47.36c1.135,60.888-3.328,152.66-7.205,218.025l23.623-73.627
		l41.752,0.005V101.121H123.303z"/>
</g>
<path style="fill:#BF3034;" d="M178.165,83.791h-30.488c-13.85,0-26.741,11.42-25.182,25.182
	c8.991,79.388-10.138,337.874-10.138,337.874h288.658c0,0-17.81-261.239-10.138-337.874c1.38-13.781-11.331-25.182-25.182-25.182
	h-30.488L178.165,83.791L178.165,83.791z"/>
<path style="fill:#E24F62;" d="M390.272,101.919c-2.641-10.41-13.258-18.128-24.651-18.128h-30.488H178.091h-30.488
	c-11.104,0-21.583,7.343-24.503,17.346l124.155,162.11c5.843,7.629,17.363,7.549,23.099-0.16L390.272,101.919z"/>
<polygon style="fill:#BF3034;" points="316.618,65.156 336.454,83.791 323.56,142.241 257.933,162.312 255.633,162.312 
	190.006,142.241 177.113,83.791 196.948,65.156 "/>
<path style="fill:#A53528;" d="M314.319,65.156c0,43.366-58.685,97.156-58.685,97.156s-58.685-53.789-58.685-97.156H314.319z"/>
<g>
	<path style="fill:#772E29;" d="M314.319,65.156H196.948c0,8.95,2.504,18.344,6.472,27.619h104.427
		C311.815,83.5,314.319,74.106,314.319,65.156z"/>
	<path style="fill:#772E29;" d="M161.56,413.011c-4.199,0-7.604-3.403-7.604-7.604v-71.656c0-4.2,3.404-7.604,7.604-7.604
		c4.199,0,7.604,3.403,7.604,7.604v71.656C169.163,409.607,165.759,413.011,161.56,413.011z"/>
	<path style="fill:#772E29;" d="M350.386,413.011c-4.2,0-7.604-3.403-7.604-7.604v-71.656c0-4.2,3.403-7.604,7.604-7.604
		c4.2,0,7.604,3.403,7.604,7.604v71.656C357.99,409.607,354.586,413.011,350.386,413.011z"/>
</g>
<path d="M511.421,374.927L396.824,98.328c-0.332-0.8-0.802-1.512-1.362-2.138c-1.268-3.092-3.095-6.018-5.461-8.667
	c-5.948-6.659-14.66-10.8-23.591-11.288c-0.589-0.032-1.179-0.049-1.768-0.049h-25.176l-17.643-16.572
	c-1.771-1.664-4.129-2.306-6.359-1.966c-0.375-0.057-0.755-0.095-1.146-0.095H196.948c-0.08,0-0.158,0.009-0.237,0.012
	c-0.132,0.004-0.263,0.009-0.394,0.02c-0.125,0.01-0.248,0.025-0.371,0.042c-0.122,0.016-0.242,0.033-0.363,0.056
	c-0.128,0.023-0.253,0.051-0.379,0.08c-0.115,0.027-0.229,0.056-0.343,0.088c-0.125,0.035-0.247,0.074-0.369,0.117
	c-0.113,0.039-0.225,0.079-0.337,0.123c-0.118,0.047-0.233,0.096-0.349,0.148c-0.112,0.051-0.222,0.103-0.331,0.159
	c-0.112,0.058-0.22,0.118-0.328,0.18c-0.106,0.062-0.212,0.125-0.315,0.192c-0.107,0.07-0.212,0.143-0.315,0.217
	c-0.097,0.07-0.195,0.141-0.289,0.216c-0.105,0.084-0.207,0.172-0.308,0.262c-0.059,0.052-0.121,0.096-0.177,0.15l-17.642,16.573
	h-27.476c-0.59,0-1.18,0.016-1.769,0.049c-8.932,0.487-17.644,4.629-23.592,11.289c-3.223,3.609-5.457,7.728-6.62,12.088
	L0.579,374.927c-0.796,1.921-0.771,4.084,0.07,5.985c0.84,1.902,2.423,3.376,4.379,4.08l31.745,11.426
	c0.473,0.333,0.987,0.622,1.548,0.847c0.737,0.295,1.492,0.461,2.245,0.518l41.062,14.779c0.834,0.3,1.705,0.449,2.575,0.449
	c1.153,0,2.302-0.263,3.358-0.782c1.851-0.91,3.252-2.535,3.883-4.499l17.905-55.803c-2.809,52.612-5.505,92.587-5.625,94.351
	c0,0.001,0,0.006,0,0.006v0.002c-0.001,0.013-0.002,0.035-0.003,0.044c-0.008,0.123-0.004,0.244-0.006,0.367
	c-0.003,0.133-0.011,0.266-0.007,0.398c0.004,0.135,0.021,0.268,0.032,0.401c0.011,0.126,0.016,0.252,0.032,0.376
	c0.018,0.133,0.049,0.263,0.073,0.393c0.023,0.124,0.042,0.248,0.071,0.37c0.031,0.128,0.074,0.252,0.112,0.379
	c0.036,0.122,0.067,0.244,0.108,0.364c0.044,0.124,0.099,0.243,0.149,0.364c0.049,0.118,0.091,0.237,0.146,0.353
	c0.057,0.12,0.125,0.233,0.188,0.35c0.06,0.112,0.115,0.225,0.179,0.334c0.072,0.119,0.155,0.231,0.233,0.347
	c0.068,0.099,0.131,0.203,0.204,0.299c0.094,0.125,0.2,0.242,0.302,0.361c0.066,0.077,0.127,0.159,0.196,0.234
	c0.002,0.002,0.004,0.004,0.006,0.006c0.003,0.003,0.006,0.007,0.009,0.01c0.107,0.115,0.224,0.218,0.338,0.325
	c0.074,0.07,0.144,0.145,0.22,0.212c0.112,0.096,0.23,0.182,0.346,0.273c0.09,0.07,0.176,0.145,0.269,0.211
	c0.107,0.076,0.222,0.141,0.334,0.211c0.108,0.068,0.213,0.142,0.323,0.204c0.105,0.059,0.216,0.107,0.324,0.161
	c0.123,0.062,0.243,0.129,0.37,0.184c0.106,0.047,0.218,0.081,0.326,0.123c0.133,0.051,0.264,0.106,0.398,0.149
	c0.121,0.039,0.245,0.065,0.369,0.097c0.128,0.033,0.252,0.074,0.382,0.1c0.141,0.029,0.284,0.046,0.427,0.067
	c0.116,0.017,0.229,0.042,0.345,0.054c0.26,0.026,0.522,0.041,0.786,0.041h288.658c0.264,0,0.526-0.014,0.786-0.041
	c0.087-0.009,0.173-0.028,0.26-0.041c0.171-0.024,0.344-0.045,0.512-0.08c0.081-0.017,0.16-0.044,0.24-0.064
	c0.171-0.042,0.344-0.081,0.511-0.135c0.08-0.025,0.156-0.06,0.235-0.088c0.164-0.059,0.331-0.115,0.491-0.185
	c0.076-0.032,0.147-0.074,0.222-0.109c0.159-0.075,0.319-0.149,0.472-0.235c0.068-0.039,0.131-0.084,0.198-0.125
	c0.155-0.094,0.311-0.187,0.46-0.291c0.06-0.042,0.114-0.091,0.172-0.135c0.15-0.113,0.3-0.225,0.442-0.349
	c0.047-0.041,0.088-0.087,0.134-0.129c0.144-0.132,0.287-0.264,0.422-0.407c0.004-0.004,0.007-0.009,0.011-0.013
	c0.001-0.001,0.002-0.002,0.004-0.003c0.043-0.046,0.079-0.097,0.121-0.144c0.131-0.148,0.262-0.297,0.38-0.454
	c0.061-0.08,0.112-0.166,0.169-0.248c0.091-0.131,0.186-0.261,0.268-0.396c0.064-0.105,0.117-0.217,0.175-0.325
	c0.064-0.119,0.134-0.235,0.192-0.358c0.058-0.122,0.103-0.247,0.154-0.372c0.047-0.115,0.099-0.227,0.141-0.344
	c0.047-0.131,0.08-0.265,0.119-0.397c0.033-0.116,0.073-0.228,0.101-0.345c0.032-0.135,0.053-0.273,0.078-0.41
	c0.021-0.119,0.05-0.235,0.066-0.354c0.018-0.137,0.024-0.276,0.035-0.415c0.01-0.122,0.025-0.241,0.029-0.363
	c0.005-0.139-0.004-0.278-0.007-0.418c-0.002-0.117,0.002-0.232-0.006-0.35c0-0.008-0.002-0.03-0.003-0.044v0.003
	c0,0,0-0.006-0.001-0.008c-0.122-1.794-2.91-43.133-5.771-97.092l18.784,58.543c0.631,1.965,2.032,3.588,3.882,4.499
	c1.055,0.52,2.205,0.782,3.359,0.782c0.869,0,1.741-0.149,2.575-0.449l41.062-14.779c0.752-0.058,1.508-0.224,2.244-0.518
	c0.561-0.224,1.075-0.514,1.548-0.847l31.745-11.426c1.957-0.704,3.538-2.178,4.379-4.08
	C512.192,379.012,512.217,376.848,511.421,374.927z M366.588,91.501c4.514,0.493,8.853,2.668,11.894,6.03
	c0.764,0.845,1.57,1.905,2.246,3.163L265.055,256.156l-1.693-87.554l62.423-19.091c2.623-0.802,4.611-2.954,5.202-5.634
	l11.578-52.485h22.079C365.292,91.394,365.942,91.431,366.588,91.501z M327.762,87.898l-10.67,48.369l-36.667,11.215
	c15.105-17.283,34.264-43.164,39.878-68.432l6.357,5.971C326.83,86.068,327.21,87.041,327.762,87.898z M255.63,151.714
	c-8.903-8.923-27.384-28.696-39.505-50.263h78.997C283,123.007,264.527,142.788,255.63,151.714z M306.079,72.761
	c-0.715,4.426-2.018,8.948-3.739,13.484h-93.422c-1.717-4.535-3.018-9.056-3.731-13.484H306.079z M191.377,80.824
	c1.272,5.159,3.091,10.336,5.308,15.451c0.151,0.448,0.341,0.878,0.568,1.285c8.247,18.441,21.513,35.994,32.753,48.964
	l-33.531-10.255l-11.006-49.894L191.377,80.824z M171.004,91.394l11.578,52.485c0.591,2.68,2.578,4.832,5.201,5.634l60.356,18.46
	l1.691,87.408L130.889,100.077c0.595-0.991,1.259-1.843,1.896-2.547c3.041-3.361,7.381-5.537,11.894-6.03
	c0.646-0.07,1.296-0.106,1.947-0.106C146.625,91.394,171.004,91.394,171.004,91.394z M115.427,137.454
	c0.366,13.459,0.408,29.104,0.206,46.072L36.916,380.307l-19.235-6.923L115.427,137.454z M79.368,395.586L51.233,385.46
	l63.482-158.695c-0.632,21.732-1.504,44.324-2.482,66.394L79.368,395.586z M130.341,124.374l119.984,156.664l3.061,158.206H119.478
	C122.486,396.937,135.289,208.058,130.341,124.374z M268.596,439.244l-3.062-158.257L380.831,126.03
	c-4.685,84.493,7.97,271.184,10.958,313.214H268.596z M398.918,290.506c-0.961-21.895-1.812-44.248-2.422-65.717l64.273,160.669
	l-28.136,10.126L398.918,290.506z M475.086,380.306l-79.253-198.118c-0.066-0.164-0.144-0.319-0.219-0.477
	c-0.185-16.966-0.122-32.563,0.274-45.915l98.434,237.587L475.086,380.306z"/>
<path d="M161.56,326.148c-4.199,0-7.604,3.403-7.604,7.604v71.656c0,4.2,3.404,7.604,7.604,7.604c4.199,0,7.604-3.403,7.604-7.604
	v-71.656C169.163,329.553,165.759,326.148,161.56,326.148z"/>
<path d="M350.386,326.148c-4.2,0-7.604,3.403-7.604,7.604v71.656c0,4.2,3.403,7.604,7.604,7.604c4.2,0,7.604-3.403,7.604-7.604
	v-71.656C357.99,329.553,354.586,326.148,350.386,326.148z"/>
<g>
</g>
<g>
</g>
<g>
</g>
<g>
</g>
<g>
</g>
<g>
</g>
<g>
</g>
<g>
</g>
<g>
</g>
<g>
</g>
<g>
</g>
<g>
</g>
<g>
</g>
<g>
</g>
<g>
</g>
</svg>
